<mxfile host="app.diagrams.net" modified="2021-10-13T13:14:06.307Z" agent="5.0 (Windows NT 10.0; Win64; x64) AppleWebKit/537.36 (KHTML, like Gecko) Chrome/94.0.4606.81 Safari/537.36" etag="1DiI5weMU90suXuD93dv" version="15.4.2" type="github">
  <diagram id="kgpKYQtTHZ0yAKxKKP6v" name="Page-1">
    <mxGraphModel dx="1022" dy="436" grid="1" gridSize="10" guides="1" tooltips="1" connect="1" arrows="1" fold="1" page="1" pageScale="1" pageWidth="850" pageHeight="1100" math="0" shadow="0">
      <root>
        <mxCell id="0" />
        <mxCell id="1" parent="0" />
        <UserObject label="Board" treeRoot="1" id="4JZDbxmFkKpoHTGJBn0r-3">
          <mxCell style="whiteSpace=wrap;html=1;align=center;treeFolding=1;treeMoving=1;newEdgeStyle={&quot;edgeStyle&quot;:&quot;elbowEdgeStyle&quot;,&quot;startArrow&quot;:&quot;none&quot;,&quot;endArrow&quot;:&quot;none&quot;};" vertex="1" parent="1">
            <mxGeometry x="70" y="30" width="100" height="40" as="geometry" />
          </mxCell>
        </UserObject>
        <UserObject label="Game&lt;span style=&quot;white-space: pre&quot;&gt;	&lt;/span&gt;" treeRoot="1" id="4JZDbxmFkKpoHTGJBn0r-4">
          <mxCell style="whiteSpace=wrap;html=1;align=center;treeFolding=1;treeMoving=1;newEdgeStyle={&quot;edgeStyle&quot;:&quot;elbowEdgeStyle&quot;,&quot;startArrow&quot;:&quot;none&quot;,&quot;endArrow&quot;:&quot;none&quot;};" vertex="1" parent="1">
            <mxGeometry x="230" y="30" width="120" height="40" as="geometry" />
          </mxCell>
        </UserObject>
        <UserObject label="Player" treeRoot="1" id="4JZDbxmFkKpoHTGJBn0r-5">
          <mxCell style="whiteSpace=wrap;html=1;align=center;treeFolding=1;treeMoving=1;newEdgeStyle={&quot;edgeStyle&quot;:&quot;elbowEdgeStyle&quot;,&quot;startArrow&quot;:&quot;none&quot;,&quot;endArrow&quot;:&quot;none&quot;};" vertex="1" parent="1">
            <mxGeometry x="400" y="30" width="120" height="40" as="geometry" />
          </mxCell>
        </UserObject>
        <UserObject label="Piece" treeRoot="1" id="4JZDbxmFkKpoHTGJBn0r-6">
          <mxCell style="whiteSpace=wrap;html=1;align=center;treeFolding=1;treeMoving=1;newEdgeStyle={&quot;edgeStyle&quot;:&quot;elbowEdgeStyle&quot;,&quot;startArrow&quot;:&quot;none&quot;,&quot;endArrow&quot;:&quot;none&quot;};" vertex="1" parent="1">
            <mxGeometry x="580" y="30" width="120" height="40" as="geometry" />
          </mxCell>
        </UserObject>
        <mxCell id="4JZDbxmFkKpoHTGJBn0r-7" value="" style="rounded=0;whiteSpace=wrap;html=1;" vertex="1" parent="1">
          <mxGeometry x="110" y="90" width="20" height="430" as="geometry" />
        </mxCell>
        <mxCell id="4JZDbxmFkKpoHTGJBn0r-8" value="" style="rounded=0;whiteSpace=wrap;html=1;" vertex="1" parent="1">
          <mxGeometry x="450" y="90" width="20" height="90" as="geometry" />
        </mxCell>
        <mxCell id="4JZDbxmFkKpoHTGJBn0r-11" value="AskMove()" style="text;html=1;strokeColor=none;fillColor=none;align=center;verticalAlign=middle;whiteSpace=wrap;rounded=0;" vertex="1" parent="1">
          <mxGeometry x="240" y="80" width="60" height="30" as="geometry" />
        </mxCell>
        <mxCell id="4JZDbxmFkKpoHTGJBn0r-48" style="edgeStyle=orthogonalEdgeStyle;rounded=0;orthogonalLoop=1;jettySize=auto;html=1;" edge="1" parent="1" source="4JZDbxmFkKpoHTGJBn0r-23" target="4JZDbxmFkKpoHTGJBn0r-49">
          <mxGeometry relative="1" as="geometry">
            <mxPoint x="640" y="240" as="targetPoint" />
            <Array as="points">
              <mxPoint x="380" y="250" />
              <mxPoint x="380" y="250" />
            </Array>
          </mxGeometry>
        </mxCell>
        <mxCell id="4JZDbxmFkKpoHTGJBn0r-23" value="" style="verticalLabelPosition=bottom;verticalAlign=top;html=1;shape=mxgraph.basic.rect;fillColor2=none;strokeWidth=1;size=20;indent=5;" vertex="1" parent="1">
          <mxGeometry x="270" y="200" width="20" height="120" as="geometry" />
        </mxCell>
        <mxCell id="4JZDbxmFkKpoHTGJBn0r-26" value="" style="html=1;verticalAlign=bottom;labelBackgroundColor=none;endArrow=block;endFill=1;rounded=0;edgeStyle=orthogonalEdgeStyle;" edge="1" parent="1">
          <mxGeometry width="160" relative="1" as="geometry">
            <mxPoint x="140" y="240" as="sourcePoint" />
            <mxPoint x="270" y="240" as="targetPoint" />
          </mxGeometry>
        </mxCell>
        <mxCell id="4JZDbxmFkKpoHTGJBn0r-27" value="sendMove()" style="text;html=1;strokeColor=none;fillColor=none;align=center;verticalAlign=middle;whiteSpace=wrap;rounded=0;" vertex="1" parent="1">
          <mxGeometry x="170" y="210" width="60" height="30" as="geometry" />
        </mxCell>
        <mxCell id="4JZDbxmFkKpoHTGJBn0r-29" value="" style="rounded=0;whiteSpace=wrap;html=1;" vertex="1" parent="1">
          <mxGeometry x="270" y="380" width="20" height="60" as="geometry" />
        </mxCell>
        <mxCell id="4JZDbxmFkKpoHTGJBn0r-32" value="sendBoardState()" style="text;html=1;strokeColor=none;fillColor=none;align=center;verticalAlign=middle;whiteSpace=wrap;rounded=0;" vertex="1" parent="1">
          <mxGeometry x="170" y="370" width="60" height="30" as="geometry" />
        </mxCell>
        <mxCell id="4JZDbxmFkKpoHTGJBn0r-33" value="" style="endArrow=block;dashed=1;endFill=0;endSize=12;html=1;rounded=0;edgeStyle=orthogonalEdgeStyle;entryX=0;entryY=0.333;entryDx=0;entryDy=0;entryPerimeter=0;" edge="1" parent="1" target="4JZDbxmFkKpoHTGJBn0r-8">
          <mxGeometry width="160" relative="1" as="geometry">
            <mxPoint x="130" y="120" as="sourcePoint" />
            <mxPoint x="320" y="120" as="targetPoint" />
            <Array as="points" />
          </mxGeometry>
        </mxCell>
        <mxCell id="4JZDbxmFkKpoHTGJBn0r-37" value="" style="html=1;verticalAlign=bottom;labelBackgroundColor=none;endArrow=block;endFill=1;rounded=0;edgeStyle=orthogonalEdgeStyle;" edge="1" parent="1">
          <mxGeometry width="160" relative="1" as="geometry">
            <mxPoint x="133" y="400" as="sourcePoint" />
            <mxPoint x="270" y="400" as="targetPoint" />
            <Array as="points">
              <mxPoint x="133" y="400" />
            </Array>
          </mxGeometry>
        </mxCell>
        <mxCell id="4JZDbxmFkKpoHTGJBn0r-41" value="" style="html=1;verticalAlign=bottom;labelBackgroundColor=none;endArrow=block;endFill=1;rounded=0;edgeStyle=orthogonalEdgeStyle;entryX=1;entryY=0.194;entryDx=0;entryDy=0;entryPerimeter=0;" edge="1" parent="1" target="4JZDbxmFkKpoHTGJBn0r-7">
          <mxGeometry width="160" relative="1" as="geometry">
            <mxPoint x="450" y="150" as="sourcePoint" />
            <mxPoint x="240" y="150" as="targetPoint" />
            <Array as="points">
              <mxPoint x="450" y="173" />
            </Array>
          </mxGeometry>
        </mxCell>
        <mxCell id="4JZDbxmFkKpoHTGJBn0r-42" value="makeMove()" style="text;html=1;strokeColor=none;fillColor=none;align=center;verticalAlign=middle;whiteSpace=wrap;rounded=0;" vertex="1" parent="1">
          <mxGeometry x="220" y="120" width="60" height="30" as="geometry" />
        </mxCell>
        <mxCell id="4JZDbxmFkKpoHTGJBn0r-44" value="checkValidity()" style="text;html=1;strokeColor=none;fillColor=none;align=center;verticalAlign=middle;whiteSpace=wrap;rounded=0;" vertex="1" parent="1">
          <mxGeometry x="170" y="260" width="60" height="30" as="geometry" />
        </mxCell>
        <mxCell id="4JZDbxmFkKpoHTGJBn0r-49" value="" style="rounded=0;whiteSpace=wrap;html=1;" vertex="1" parent="1">
          <mxGeometry x="640" y="210" width="20" height="100" as="geometry" />
        </mxCell>
        <mxCell id="4JZDbxmFkKpoHTGJBn0r-50" value="checkType()" style="text;html=1;strokeColor=none;fillColor=none;align=center;verticalAlign=middle;whiteSpace=wrap;rounded=0;" vertex="1" parent="1">
          <mxGeometry x="400" y="230" width="60" height="30" as="geometry" />
        </mxCell>
        <mxCell id="4JZDbxmFkKpoHTGJBn0r-51" value="" style="html=1;verticalAlign=bottom;labelBackgroundColor=none;endArrow=block;endFill=1;rounded=0;edgeStyle=orthogonalEdgeStyle;" edge="1" parent="1">
          <mxGeometry width="160" relative="1" as="geometry">
            <mxPoint x="265" y="290" as="sourcePoint" />
            <mxPoint x="135" y="290" as="targetPoint" />
          </mxGeometry>
        </mxCell>
        <mxCell id="4JZDbxmFkKpoHTGJBn0r-52" value="" style="html=1;verticalAlign=bottom;labelBackgroundColor=none;endArrow=block;endFill=1;rounded=0;edgeStyle=orthogonalEdgeStyle;entryX=1;entryY=0.6;entryDx=0;entryDy=0;entryPerimeter=0;" edge="1" parent="1" target="4JZDbxmFkKpoHTGJBn0r-23">
          <mxGeometry width="160" relative="1" as="geometry">
            <mxPoint x="640" y="259" as="sourcePoint" />
            <mxPoint x="510" y="259" as="targetPoint" />
            <Array as="points">
              <mxPoint x="640" y="270" />
              <mxPoint x="295" y="270" />
              <mxPoint x="295" y="272" />
            </Array>
          </mxGeometry>
        </mxCell>
        <mxCell id="4JZDbxmFkKpoHTGJBn0r-53" value="returnType()" style="text;html=1;strokeColor=none;fillColor=none;align=center;verticalAlign=middle;whiteSpace=wrap;rounded=0;" vertex="1" parent="1">
          <mxGeometry x="400" y="260" width="60" height="30" as="geometry" />
        </mxCell>
        <mxCell id="4JZDbxmFkKpoHTGJBn0r-54" value="" style="html=1;verticalAlign=bottom;labelBackgroundColor=none;endArrow=block;endFill=1;rounded=0;edgeStyle=orthogonalEdgeStyle;exitX=-0.233;exitY=0.927;exitDx=0;exitDy=0;exitPerimeter=0;" edge="1" parent="1" source="4JZDbxmFkKpoHTGJBn0r-49">
          <mxGeometry width="160" relative="1" as="geometry">
            <mxPoint x="540" y="304.5" as="sourcePoint" />
            <mxPoint x="290" y="304.5" as="targetPoint" />
            <Array as="points">
              <mxPoint x="635" y="305" />
              <mxPoint x="465" y="305" />
            </Array>
          </mxGeometry>
        </mxCell>
        <mxCell id="4JZDbxmFkKpoHTGJBn0r-56" value="returnColor()" style="text;html=1;strokeColor=none;fillColor=none;align=center;verticalAlign=middle;whiteSpace=wrap;rounded=0;" vertex="1" parent="1">
          <mxGeometry x="500" y="280" width="60" height="30" as="geometry" />
        </mxCell>
      </root>
    </mxGraphModel>
  </diagram>
</mxfile>
